 <svg  version="1.0" xmlns="http://www.w3.org/2000/svg"  width="300.000000pt" height="295.000000pt" viewBox="0 0 300.000000 295.000000"  preserveAspectRatio="xMidYMid meet">  <g transform="translate(0.000000,295.000000) scale(0.100000,-0.100000)" fill="#131188" stroke="none"> <path d="M880 2597 c0 -34 33 -77 58 -77 7 0 12 -11 12 -24 0 -38 10 -56 31 -56 19 0 19 -15 17 -512 l-3 -513 -32 -3 c-25 -2 -33 -8 -33 -23 0 -14 -7 -19 -25 -19 -22 0 -25 -4 -25 -35 l0 -35 600 0 600 0 0 33 c0 32 -2 33 -30 29 -27 -4 -30 -1 -30 22 0 24 -3 26 -45 26 l-45 0 0 150 0 150 57 0 58 0 -108 108 -107 107 0 232 0 232 25 25 c13 13 32 26 42 28 12 2 19 14 21 36 2 24 11 36 32 47 34 18 50 43 50 79 l0 26 -560 0 -560 0 0 -33z m350 -277 l0 -70 -55 0 -55 0 0 70 0 70 55 0 55 0 0 -70z m180 0 l0 -70 -55 0 -55 0 0 70 0 70 55 0 55 0 0 -70z m230 -72 l0 -142 -22 22 -22 22 -38 -37 -38 -37 0 157 0 157 60 0 60 0 0 -142z m-410 -143 l0 -65 -55 0 -55 0 0 65 0 65 55 0 55 0 0 -65z m180 0 l0 -65 -55 0 -55 0 0 65 0 65 55 0 55 0 0 -65z m309 -221 l121 -116 0 -204 0 -204 -90 0 -90 0 0 70 0 70 -65 0 -65 0 0 -70 0 -70 -95 0 -95 0 0 197 0 198 122 122 c68 68 126 123 129 123 4 0 61 -52 128 -116z m-489 1 l0 -65 -55 0 -55 0 0 65 0 65 55 0 55 0 0 -65z"/> <path d="M1510 1755 c0 -45 0 -45 35 -45 35 0 35 0 35 45 0 45 0 45 -35 45 -35 0 -35 0 -35 -45z"/> <path d="M1607 1794 c-4 -4 -7 -25 -7 -46 0 -38 0 -38 41 -38 l40 0 -3 43 c-3 39 -5 42 -33 45 -17 2 -34 0 -38 -4z"/> <path d="M1510 1645 c0 -45 0 -45 35 -45 35 0 35 0 35 45 0 45 0 45 -35 45 -35 0 -35 0 -35 -45z"/> <path d="M1602 1648 c3 -42 4 -43 38 -43 34 0 35 1 36 43 l1 42 -39 0 -39 0 3 -42z"/> <path d="M690 1185 c0 -8 9 -15 20 -15 32 0 40 -39 40 -200 0 -161 -8 -200 -40 -200 -13 0 -20 -7 -20 -20 0 -19 7 -20 110 -20 103 0 110 1 110 20 0 15 -7 20 -25 20 -32 0 -45 26 -45 93 l0 54 63 5 c119 10 177 59 177 148 0 56 -20 86 -74 111 -55 25 -316 29 -316 4z m234 -29 c40 -17 61 -61 53 -114 -8 -50 -46 -82 -98 -82 l-39 0 0 98 c0 54 3 102 7 105 10 11 41 8 77 -7z"/> <path d="M1100 1187 c0 -7 10 -17 22 -22 18 -8 38 -52 99 -220 70 -193 77 -210 101 -213 23 -3 29 6 83 128 32 72 62 127 65 123 4 -5 29 -63 55 -131 44 -115 49 -123 72 -120 22 3 32 23 103 205 79 207 92 233 116 233 8 0 14 7 14 15 0 12 -15 15 -75 15 -60 0 -75 -3 -75 -15 0 -8 7 -15 15 -15 9 0 18 -6 21 -14 7 -18 -87 -289 -97 -279 -16 17 -110 267 -105 279 3 8 12 14 20 14 7 0 16 7 20 15 5 13 -10 15 -99 15 -109 0 -127 -8 -76 -35 19 -9 35 -30 46 -59 l17 -45 -43 -100 c-23 -56 -46 -98 -49 -94 -10 12 -90 268 -90 287 0 9 8 16 20 16 11 0 20 7 20 15 0 12 -18 15 -100 15 -74 0 -100 -3 -100 -13z"/> <path d="M1860 1187 c0 -9 10 -17 23 -19 22 -3 22 -5 25 -178 3 -198 0 -220 -28 -220 -13 0 -20 -7 -20 -20 0 -19 7 -20 105 -20 98 0 105 1 105 20 0 14 -7 20 -24 20 -30 0 -36 16 -36 101 0 99 21 95 89 -17 62 -101 93 -124 169 -124 45 0 52 3 52 20 0 13 -7 20 -18 20 -23 0 -57 36 -112 119 -41 61 -42 66 -25 75 49 28 75 64 75 105 0 53 -15 84 -53 107 -27 16 -56 20 -179 22 -127 3 -148 2 -148 -11z m235 -33 c8 -4 23 -20 31 -36 33 -64 -12 -138 -82 -138 l-34 0 0 90 0 90 34 0 c19 0 42 -3 51 -6z"/> <path d="M740 600 c0 -6 7 -13 15 -16 12 -5 15 -25 15 -95 0 -70 -3 -91 -15 -95 -32 -13 -12 -24 43 -24 49 1 55 2 40 14 -11 8 -18 27 -18 48 0 32 3 36 31 42 71 14 79 10 79 -39 0 -33 -4 -45 -15 -45 -8 0 -15 -4 -15 -10 0 -6 27 -10 63 -10 47 1 58 3 45 11 -15 8 -18 25 -18 105 0 75 3 96 15 100 33 13 12 23 -45 23 -58 -1 -77 -10 -45 -23 10 -3 15 -19 15 -46 l0 -40 -55 0 -55 0 0 40 c0 27 5 43 15 46 32 13 13 24 -40 24 -31 0 -55 -4 -55 -10z"/> <path d="M1143 591 c-61 -39 -79 -109 -43 -169 55 -89 201 -72 231 27 14 47 0 97 -36 131 -35 32 -109 38 -152 11z m106 -20 c37 -37 39 -124 4 -163 -35 -39 -94 -14 -108 45 -16 62 20 137 65 137 11 0 29 -9 39 -19z"/> <path d="M1410 599 c0 -5 7 -12 15 -15 12 -5 14 -21 9 -93 -4 -55 -11 -90 -20 -97 -23 -18 -16 -24 26 -24 37 0 55 13 30 22 -7 2 -10 32 -8 78 l3 75 35 -87 c19 -49 40 -88 47 -88 10 0 73 136 73 159 0 6 5 11 10 11 6 0 10 -32 10 -75 0 -60 -3 -75 -15 -75 -8 0 -15 -4 -15 -10 0 -5 25 -10 55 -10 30 0 55 5 55 10 0 6 -7 10 -15 10 -12 0 -15 17 -15 95 0 79 3 96 18 104 16 9 16 10 0 16 -9 4 -31 5 -49 3 -30 -3 -34 -8 -63 -82 l-31 -78 -35 77 -35 77 -43 3 c-23 2 -42 -1 -42 -6z"/> <path d="M1790 600 c0 -4 7 -10 15 -14 22 -8 22 -196 1 -196 -8 0 -18 -4 -21 -10 -4 -6 31 -10 98 -10 l105 0 5 28 c7 35 2 39 -22 18 -11 -10 -38 -20 -60 -23 l-41 -6 0 47 c0 43 2 46 25 46 14 0 28 -7 31 -15 11 -29 24 -15 24 27 0 39 -1 40 -18 25 -10 -10 -28 -17 -40 -17 -19 0 -22 6 -22 40 l0 40 40 0 c27 0 43 -5 46 -15 10 -25 24 -17 24 13 l0 27 -95 2 c-52 1 -95 -2 -95 -7z"/> <path d="M2095 585 c-41 -40 -29 -82 34 -114 52 -27 67 -47 51 -66 -19 -23 -56 -18 -78 10 -26 33 -34 32 -30 -7 3 -29 8 -34 42 -43 55 -13 110 16 114 63 4 40 -9 57 -62 84 -46 23 -57 35 -49 54 12 32 83 22 83 -11 0 -8 5 -15 10 -15 17 0 12 57 -6 64 -36 14 -85 6 -109 -19z"/> </g> </svg> 
